<svg xmlns="http://www.w3.org/2000/svg"  viewBox="0 0 64 64" width="128px" height="128px"><linearGradient id="6-Bs-Lmg9kmCtopaoELWRa" x1="32" x2="32" y1="59.275" y2="7.275" gradientTransform="matrix(1 0 0 -1 0 65.276)" gradientUnits="userSpaceOnUse"><stop offset="0" stop-color="#1a6dff"/><stop offset="1" stop-color="#c822ff"/></linearGradient><path fill="url(#6-Bs-Lmg9kmCtopaoELWRa)" d="M32,58C17.663,58,6,46.337,6,32C6,17.664,17.663,6,32,6s26,11.664,26,26	C58,46.337,46.337,58,32,58z M32,8C18.767,8,8,18.767,8,32s10.767,24,24,24s24-10.767,24-24S45.233,8,32,8z"/><linearGradient id="6-Bs-Lmg9kmCtopaoELWRb" x1="30.723" x2="30.723" y1="19" y2="47" gradientUnits="userSpaceOnUse"><stop offset="0" stop-color="#6dc7ff"/><stop offset="1" stop-color="#e6abff"/></linearGradient><path fill="url(#6-Bs-Lmg9kmCtopaoELWRb)" d="M34.292,19l-17.212,8.13l2.662,12.253h3.51	l-0.607-8.764l0.539-0.167l2.111,8.931h3.647l-0.135-10.676l0.538-0.167l1.846,10.843h3.862l0.911-12.895l0.538-0.168l0.956,13.064	h5.106l1.798-17.933L34.292,19z M31.345,44.399l-1.273-3.279l12.275,0.631L41.82,47L31.345,44.399z"/></svg>